<svg xmlns="http://www.w3.org/2000/svg" viewBox="0 0 300 300">
  <defs>
    <linearGradient id="bg-gl" x1="0" y1="0" x2="0" y2="1">
      <stop offset="0%" stop-color="#f8f4f8"/>
      <stop offset="100%" stop-color="#f0e4f4"/>
    </linearGradient>
    <linearGradient id="pb-gl" x1="0" y1="0" x2="1" y2="0">
      <stop offset="0%" stop-color="#e0c8e8"/>
      <stop offset="50%" stop-color="#f4eef8"/>
      <stop offset="100%" stop-color="#d8b8e0"/>
    </linearGradient>
  </defs>
  <rect width="300" height="300" fill="url(#bg-gl)"/>
  <ellipse cx="150" cy="291" rx="26" ry="6" fill="#b898c8" opacity="0.22"/>
  <rect x="130" y="22" width="40" height="72" rx="20" fill="#8B6090"/>
  <rect x="134" y="28" width="12" height="60" rx="6" fill="white" opacity="0.18"/>
  <rect x="128" y="90" width="44" height="10" rx="5" fill="#7a4e80"/>
  <rect x="132" y="98" width="36" height="14" rx="4" fill="#c8906a"/>
  <rect x="135" y="110" width="30" height="136" rx="4" fill="url(#pb-gl)"/>
  <rect x="138" y="113" width="9" height="130" rx="3" fill="white" opacity="0.28"/>
  <rect x="136" y="144" width="28" height="42" rx="3" fill="white" opacity="0.45"/>
  <text x="150" y="159" text-anchor="middle" font-family="Georgia, serif" font-style="italic" font-size="7.5" fill="#4A2A60" opacity="0.8">Exaucée</text>
  <line x1="138" y1="163" x2="162" y2="163" stroke="#d8b8e0" stroke-width="0.8"/>
  <text x="150" y="175" text-anchor="middle" font-family="Georgia, serif" font-style="italic" font-size="7" fill="#7a5080" opacity="0.8">Ganache</text>
  <rect x="137" y="244" width="26" height="10" rx="2" fill="#e8c8a8"/>
  <path d="M135 254 L150 292 L165 254Z" fill="#907098"/>
  <path d="M140 256 L148 286 L144 256Z" fill="white" opacity="0.2"/>
  <path d="M136 26 C126 14 112 18 120 26 C124 30 134 28 136 26Z" fill="#b898c8"/>
  <path d="M164 26 C174 14 188 18 180 26 C176 30 166 28 164 26Z" fill="#b898c8"/>
  <circle cx="150" cy="27" r="6.5" fill="#8B6090"/>
  <circle cx="150" cy="27" r="2.5" fill="#d8b8e0"/>
</svg>
